Special 26 Chabbis 2013 Hindi DVDRiP XViD ESubs-ANON


IMDB: http://www.imdb.com/title/tt2377938/


Information:


General
Complete name : s26.2013.1cd.xvid.esubs-anon.avi
Format : AVI
Format/Info : Audio Video Interleave
File size : 695 MiB
Duration : 2h 23mn
Overall bit rate : 677 Kbps

Video
ID : 0
Format : MPEG-4 Visual
Format profile : Advanced Simple@L5
Format settings, BVOP : 2
Format settings, QPel : Yes
Format settings, GMC : No warppoints
Format settings, Matrix : Default (H.263)
Codec ID : XVID
Codec ID/Hint : XviD
Duration : 2h 23mn
Bit rate : 575 Kbps
Width : 608 pixels
Height : 256 pixels
Display aspect ratio : 2.40:1
Frame rate : 23.976 fps
Color space : YUV
Chroma subsampling : 4:2:0
Bit depth : 8 bits
Scan type : Progressive
Compression mode : Lossy
Bits/(Pixel*Frame) : 0.154
Stream size : 590 MiB (85%)
Writing library : XviD 1.2.1 (UTC 2008-12-04)

Audio
ID : 1
Format : MPEG Audio
Format version : Version 1
Format profile : Layer 3
Mode : Joint stereo
Mode extension : MS Stereo
Codec ID : 55
Codec ID/Hint : MP3
Duration : 2h 23mn
Bit rate mode : Constant
Bit rate : 96.0 Kbps
Channel(s) : 2 channels
Sampling rate : 32.0 KHz
Compression mode : Lossy
Stream size : 98.6 MiB (14%)


Poster:

 
http://i.imgur.com/1qOhwnK.jpg


Screenshots:

 
http://i.imgur.com/Pn6TdU5.png

 
http://i.imgur.com/bvmQW9T.png

 
http://i.imgur.com/KpCdsCB.png


SEED AND ENJOY!